<svg width="123" height="120" viewBox="0 0 123 120" fill="none" xmlns="http://www.w3.org/2000/svg">
<path d="M86.4913 73.6903C71.4011 46.487 37.4576 48.339 29.5329 39.4022C24.833 34.1047 23.9717 27.709 24.5908 22.0024C25.1076 17.2649 26.6527 12.9957 27.8748 10.207C29.6298 8.93105 31.4549 7.74665 33.3553 6.66455C33.6191 7.60668 33.9259 8.53266 34.2974 9.4371C34.7712 10.6161 35.4603 11.7574 36.3324 12.8934C39.2718 16.7211 44.3163 20.4466 50.3351 24.8934C56.3755 29.3618 63.358 34.5247 69.5976 40.9957C77.6138 49.2919 84.4187 59.7576 86.4913 73.6903Z" fill="#66A589"/>
<path d="M120.164 76.7218C116.03 90.1647 107.195 101.912 95.0554 109.567C95.3999 96.7111 93.5318 85.6855 89.5103 76.7541C86.9584 48.6895 66.6946 33.7123 51.8897 22.7674C44.7187 17.4646 38.533 12.8885 36.7295 8.44707C36.498 7.87102 36.288 7.27883 36.105 6.67586C36.0996 6.67048 36.0996 6.6651 36.0996 6.6651C37.5855 5.88448 39.109 5.17922 40.6649 4.53857C40.6649 4.53857 40.6649 4.53858 40.6703 4.54396C43.7712 7.90871 53.2194 16.2694 73.521 20.6463C77.2787 21.4592 81.0257 22.7351 84.6542 24.4148C94.0755 28.7648 102.738 35.8119 108.945 44.3503C109.607 45.2439 110.232 46.1592 110.824 47.0851C116.504 55.9088 119.637 65.9493 120.164 76.7218Z" fill="#41705B"/>
<path d="M122.787 59.3429C122.787 62.5945 122.518 65.8139 121.996 68.9795C120.612 60.608 117.619 52.7641 113.049 45.6631C104.079 31.7035 89.5115 21.3885 74.0713 18.0615C56.0578 14.1907 46.8841 6.97125 43.374 3.5096C43.3687 3.50422 43.3633 3.50422 43.3633 3.50422C46.0228 2.55132 48.7523 1.78147 51.5194 1.21619C55.4333 0.414036 59.4333 0.00488281 63.4495 0.00488281C63.7133 0.00488281 63.9717 0.00488396 64.2355 0.0102676C84.3917 0.274064 102.158 10.6375 112.688 26.2661C119.067 35.725 122.787 47.1059 122.787 59.3429Z" fill="#66A589"/>
<path d="M23.287 85.3088C29.9519 95.8015 36.3584 105.901 36.0784 114.714C14.9424 105.239 0.212891 84.006 0.212891 59.3384C0.212891 41.481 7.92221 25.4379 20.1968 14.3423C14.5386 23.3652 6.2802 40.1512 9.59111 57.298C11.3677 66.5309 17.4296 76.0706 23.287 85.3088Z" fill="#66A589"/>
<path d="M81.6561 76.7215C80.0141 79.0041 78.0706 81.0714 76.0194 83.0203C73.9575 84.9638 71.7449 86.7296 69.4891 88.4523C68.3909 89.2922 67.2711 90.0943 66.1351 90.875C69.2307 94.2935 75.9764 106.557 73.1015 118.767C72.3963 118.907 71.691 119.047 70.975 119.16C67.6856 119.709 64.3101 120 60.8646 120C53.0422 120 45.5644 118.52 38.695 115.817C39.481 105.895 32.4177 94.7619 25.5213 83.8978C19.7932 74.8749 13.8712 65.5398 12.1861 56.8076C8.74601 39.0525 18.8349 21.1251 24.0677 13.3081C21.7959 19.7038 19.8578 29.7119 25.629 37.7604C25.7528 38.5464 25.9035 39.3701 26.065 40.2261C26.3827 41.8196 26.5873 43.2732 26.7003 44.6137C26.5711 44.6945 26.4311 44.7752 26.2858 44.8452C25.9628 45.0121 25.6021 45.1359 25.2414 45.2382C24.5038 45.4428 23.7124 45.5235 22.921 45.5074C22.1189 45.5074 21.3167 45.362 20.5146 45.1951C20.1162 45.0929 19.7232 44.9744 19.3248 44.8614L18.1512 44.4414L19.2494 45.0498C19.6263 45.2221 20.0031 45.4105 20.3907 45.5774C21.1767 45.8842 21.9843 46.1696 22.8403 46.3149C23.6855 46.4711 24.5684 46.541 25.4675 46.4441C25.9089 46.3903 26.3558 46.3149 26.7972 46.175C27.0825 54.1104 23.8632 57.5828 20.5576 61.8466V61.852C17.2198 66.1535 22.6249 68.0324 25.2467 69.5828C25.7959 69.9058 26.2212 70.2127 26.4257 70.5304C26.7757 71.0741 26.9157 71.564 26.9641 72.027C27.0772 73.0983 26.668 73.9543 27.1741 74.7026C27.7393 75.5425 29.4083 76.0108 30.1889 76.2962C30.4096 76.3769 30.555 76.4415 30.5873 76.4954C30.6088 76.5331 30.5765 76.5923 30.4957 76.6784C30.0974 77.1253 28.52 78.202 28.9399 79.634C29.4352 81.3352 32.0085 81.4483 32.6384 81.4375C33.2521 81.4214 34.5281 83.1495 34.9372 87.9194C35.3302 92.4685 37.1714 96.2909 44.0893 95.6018C44.4231 95.5748 44.7784 95.5318 45.1337 95.4779C48.1862 95.0149 51.5779 93.9759 54.7004 92.9261C56.7462 92.1132 58.8027 91.2033 60.8215 90.272C63.3195 89.0984 65.8121 87.8709 68.224 86.5142C70.6412 85.1522 73.0262 83.7309 75.2873 82.1212C77.543 80.5062 79.7126 78.7619 81.6561 76.7215Z" fill="#41705B"/>
<path opacity="0.2" d="M86.4913 73.6913C71.4011 46.488 37.4576 48.34 29.5329 39.4032C24.833 34.1057 23.9717 27.71 24.5908 22.0034C25.366 27.9792 28.7684 38.2457 42.7443 40.8621C62.7874 44.6253 74.066 52.5607 80.6071 61.8851C80.6071 61.8851 79.4604 55.0102 69.5976 40.9914C77.6138 49.2929 84.4187 59.7586 86.4913 73.6913Z" fill="#66A589"/>
<path opacity="0.2" d="M120.165 76.7213C116.03 90.1641 107.196 101.911 95.0558 109.567C95.4004 96.7105 93.5323 85.6849 89.5107 76.7536C86.9589 48.6889 66.6951 33.7117 51.8902 22.7669C44.7192 17.464 38.5335 12.888 36.73 8.4465C36.4985 7.87045 36.2885 7.27826 36.1055 6.67529C36.337 7.03061 43.7663 18.4654 64.7354 27.919C86.0329 37.5287 99.9549 76.9204 98.4206 94.3256C98.4206 94.3256 105.801 84.1237 97.3116 59.9244C97.6346 60.3551 109.236 76.156 106.216 90.8424C106.216 90.8424 115.95 85.2812 115.68 70.5194C115.503 60.4305 111.476 49.9702 108.94 44.3443C109.602 45.238 110.227 46.1532 110.819 47.0792C116.504 55.9083 119.637 65.9487 120.165 76.7213Z" fill="#66A589"/>
<path opacity="0.2" d="M122.786 59.3435C122.786 62.5952 122.517 65.8146 121.995 68.9801C120.611 60.6087 117.618 52.7648 113.048 45.6638C104.078 31.7041 89.5105 21.3892 74.0703 18.0621C56.0568 14.1913 46.8832 6.97191 43.373 3.51025C43.7607 3.77943 56.2668 12.2747 75.5508 14.3528C95.1309 16.4632 111.89 33.7391 117.311 45.33C117.311 45.33 116.38 35.6988 112.687 26.2667C119.066 35.7257 122.786 47.1066 122.786 59.3435Z" fill="#66A589"/>
<path opacity="0.2" d="M70.9691 119.154C67.6798 119.703 64.3042 119.994 60.8587 119.994C53.0364 119.994 45.5586 118.513 38.6891 115.811C39.4751 105.889 32.4118 94.7556 25.5154 83.8915C19.7873 74.8686 13.8653 65.5334 12.1803 56.8012C8.74016 39.0461 18.829 21.1187 24.0619 13.3018C23.7604 13.9209 10.7159 41.3718 20.5518 61.8403V61.8456C17.2139 66.1471 22.6191 68.026 25.2409 69.5765C25.8169 70.4217 26.393 71.2346 26.9582 72.0206C27.0713 73.092 26.6621 73.948 27.1682 74.6963C27.7335 75.5361 29.4024 76.0045 30.183 76.2898C30.2853 76.419 30.3822 76.5536 30.4899 76.6774C30.0915 77.1243 28.5141 78.201 28.934 79.633C29.4293 81.3342 32.0027 81.4473 32.6325 81.4365C33.2463 81.4204 34.5222 83.1485 34.9313 87.9184C35.3243 92.4675 37.1655 96.2899 44.0835 95.6008C46.21 100.139 47.6582 105.485 48.1696 112.699C48.1696 112.699 55.0391 107.875 51.8843 99.8915C51.8843 99.8915 57.0795 107.315 59.1252 112.699C60.9341 117.48 65.4617 119.811 70.9691 119.154Z" fill="#66A589"/>
<path opacity="0.2" d="M66.547 44.7638C58.5416 34.5134 45.8471 35.6709 36.9372 27.224C28.0274 18.7771 33.3517 6.66943 33.3517 6.66943C33.6155 7.61156 33.9224 8.53754 34.2939 9.44198C34.7676 10.621 35.4567 11.7623 36.3289 12.8983C37.3787 20.3438 43.0691 26.9441 53.5564 31.5901C66.547 37.3398 66.547 44.7638 66.547 44.7638Z" fill="black"/>
<path opacity="0.2" d="M108.175 73.6904C106.641 48.4628 79.4915 26.1101 62.0971 20.6781C44.9665 15.3376 40.7996 4.87186 40.6758 4.54346C43.7767 7.9082 53.2249 16.2689 73.5265 20.6458C77.2842 21.4587 81.0312 22.7346 84.6598 24.4143C109.317 43.9514 108.175 73.6904 108.175 73.6904Z" fill="black"/>
<path opacity="0.2" d="M100.231 19.1495C91.041 8.5007 79.3532 9.75508 66.551 7.38629C58.4487 5.88427 53.8242 3.07942 51.5254 1.21131C55.4393 0.409153 59.4393 0 63.4554 0C63.7192 0 63.9776 1.15018e-06 64.2414 0.00538475C67.6008 3.35398 75.9508 5.63124 85.4851 8.08078C96.1716 10.821 100.112 18.8964 100.231 19.1495Z" fill="black"/>
</svg>
