<svg width="375" height="21" viewBox="0 0 375 21" fill="none" xmlns="http://www.w3.org/2000/svg">
<path d="M12.9833 18.5027L2.23334 7.32267C0.800379 5.83239 0 3.84523 0 1.7778V0H375V1.7778C375 3.84523 374.2 5.83239 372.767 7.32267L362.017 18.5027C358.869 21.7762 353.631 21.7762 350.483 18.5027L343.267 10.9973C340.119 7.72382 334.881 7.72382 331.733 10.9973L324.517 18.5027C321.369 21.7762 316.131 21.7762 312.983 18.5027L305.767 10.9973C302.619 7.72382 297.381 7.72382 294.233 10.9973L287.017 18.5027C283.869 21.7762 278.631 21.7762 275.483 18.5027L268.267 10.9973C265.119 7.72382 259.881 7.72382 256.733 10.9973L249.517 18.5027C246.369 21.7762 241.131 21.7762 237.983 18.5027L230.767 10.9973C227.619 7.72382 222.381 7.72382 219.233 10.9973L212.017 18.5027C208.869 21.7762 203.631 21.7762 200.483 18.5027L193.267 10.9973C190.119 7.72382 184.881 7.72382 181.733 10.9973L174.517 18.5027C171.369 21.7762 166.131 21.7762 162.983 18.5027L155.767 10.9973C152.619 7.72382 147.381 7.72382 144.233 10.9973L137.017 18.5027C133.869 21.7762 128.631 21.7762 125.483 18.5027L118.267 10.9973C115.119 7.72382 109.881 7.72382 106.733 10.9973L99.5167 18.5027C96.3691 21.7762 91.1309 21.7762 87.9833 18.5027L80.7667 10.9973C77.6191 7.72382 72.3809 7.72382 69.2333 10.9973L62.0167 18.5027C58.8691 21.7762 53.6309 21.7762 50.4833 18.5027L43.2667 10.9973C40.1191 7.72382 34.8809 7.72382 31.7333 10.9973L24.5167 18.5027C21.3691 21.7762 16.1309 21.7762 12.9833 18.5027Z" fill="#ECF5F1"/>
</svg>
